# xmcd
#
# Track frame offsets: 
#        150
#        10190
#        21241
#        35408
#        45715
#        57712
#        66800
#        79476
#        90886
#        101198
#
# Disc length: 1487 seconds
#
# Revision: 1
# Processed by: cddbd v1.5.2PL0 Copyright (c) Steve Scherf et al.
# Submitted via: ExactAudioCopy v0.95b4
#
DISCID=8005cd0a
DTITLE=Johnny Cash - Original American Classics: Train Of Love
DYEAR=2005
DGENRE=Country
TTITLE0=Ballad Of A Teenage Queen
TTITLE1=Train Of Love
TTITLE2=Oney
TTITLE3=The Ways Of A Woman In Love
TTITLE4=You're The Nearest Thing To Heaven
TTITLE5=Katy Too
TTITLE6=Give My Love To Rose
TTITLE7=Oh Lonesome Me
TTITLE8=Straight A's In Love
TTITLE9=Hey, Porter!
EXTD=2nd disc of 3 disc box set
EXTT0=
EXTT1=
EXTT2=
EXTT3=
EXTT4=
EXTT5=
EXTT6=
EXTT7=
EXTT8=
EXTT9=
PLAYORDER=
